<svg width="1800" height="1000" viewBox="0 0 1800 1000" fill="none" xmlns="http://www.w3.org/2000/svg">
  <rect width="1800" height="1000" fill="#17372D"/>
  <circle cx="1390" cy="180" r="120" fill="#C79B45" opacity="0.72"/>
  <path d="M0 570L274 290L474 498L716 206L976 522L1190 322L1800 620V1000H0V570Z" fill="#285345"/>
  <path d="M0 650L234 444L408 583L640 390L876 650L1100 470L1800 720V1000H0V650Z" fill="#3D6670"/>
  <path d="M0 748C172 710 309 720 486 760C701 809 884 800 1062 746C1260 686 1482 696 1800 778V1000H0V748Z" fill="#F4EFE3" opacity="0.86"/>
  <path d="M0 808C180 774 336 774 518 820C738 876 927 852 1124 804C1338 752 1534 768 1800 846V1000H0V808Z" fill="#17372D" opacity="0.54"/>
  <path d="M274 290L350 369L312 360L263 417L222 404L274 290Z" fill="#F4EFE3" opacity="0.86"/>
  <path d="M716 206L797 304L752 295L703 368L650 344L716 206Z" fill="#F4EFE3" opacity="0.9"/>
</svg>
