<svg xmlns="http://www.w3.org/2000/svg" xmlns:xlink="http://www.w3.org/1999/xlink" id="&#x56FE;&#x5C42;_1" x="0px" y="0px" width="372.4px" height="122.5px" viewBox="0 0 372.4 122.5" style="enable-background:new 0 0 372.4 122.5;" xml:space="preserve"><style type="text/css">	.st0{fill:#5A7F71;}</style><polygon class="st0" points="363.7,47.3 360.4,47.3 355.9,46.2 351.6,45.8 347.4,45.8 343.1,45.8 337.2,47.3 331.8,46.5 323.7,44.3  316.9,41.7 310.5,39.6 306.7,41.5 302.5,41.4 297.8,39.7 294.6,39 284.8,43.4 279.1,42 273.4,41.7 270.2,42.1 267.3,43.5  263.5,43.5 257.6,43.5 252.9,43.5 248.1,42.4 244.6,41.7 237.9,38.1 235.8,36.4 232.9,36.1 227.1,33 224.3,29.1 221.1,24.9  219,23.8 219,22 216.8,20 214.9,20 212.7,19.4 210,19.4 207.3,19.4 206.7,17.3 205.2,16.1 202.7,17.7 200.8,20.5 195.6,21.1  193.8,23 191.5,22.7 188.8,22.7 187.4,24.7 186.1,26.5 179.5,29.9 176.2,28.2 174.1,27.4 170.1,26.2 166.5,26.1 158.6,26.1  150.6,24.4 144.4,20.9 141.6,19.4 139.5,16.2 136,14.4 132.4,9.3 130.8,7.5 128.8,6.5 128.8,4.2 128.8,2 126.7,0 124.9,1.8  123.9,4.2 121.5,6.9 118.7,10.3 117.4,14.4 115.4,14.4 112.2,19.4 108.5,23.9 106.3,22.4 104.1,22.4 98.2,24.5 90.6,29.1 87.1,29.7  83.5,32.6 76,35 63.3,38.8 58.6,38.8 52.4,38 47.7,38 37.1,33.9 29.6,30.1 24.3,26.4 19.9,26.4 4.1,33.9 0,70.5 4.1,70.5 4.1,122.5  372.4,122.5 372.4,51.5 "></polygon></svg>