<svg xmlns="http://www.w3.org/2000/svg" xmlns:xlink="http://www.w3.org/1999/xlink" id="&#x56FE;&#x5C42;_1" x="0px" y="0px" width="162px" height="50.6px" viewBox="0 0 162 50.6" style="enable-background:new 0 0 162 50.6;" xml:space="preserve"><style type="text/css">	.st0{fill:#5A7F71;}	.st1{fill:#FFFFFF;}	.st2{fill:#10312B;}</style><g>	<g>		<polygon class="st0" points="145.5,0.3 145.5,16.5 142,16.5 142,0.3 125.5,0.3 125.5,49.8 142,49.8 142,31.5 145.5,31.5    145.5,49.8 162,49.8 162,0.3   "></polygon>		<path class="st0" d="M74.4,32.7c0,0.6-0.1,1.1-0.4,1.4c-0.3,0.3-0.7,0.5-1.2,0.5c-0.5-0.1-0.9-0.2-1.2-0.6   c-0.3-0.3-0.4-0.7-0.4-1.4V0.3H54.7v0.1h-16l-4,12.6c0,0.1-0.1,0.2-0.1,0.3V0.3H18.3v3.9H8.4V0H0v18.4h8.4v-4.2h9.9v4.3H0v11.6   l0.4,0.4c1.1,1.1,2.5,2.1,3.9,2.9c0.5,0.3,1,0.5,1.5,0.8c-0.5,0.3-1,0.5-1.5,0.8c-1.4,0.8-2.7,1.8-3.9,2.9L0,38.4V50h32.9l1.9,0   V33.4c2.2,0.1,3.2,0.8,3.2,2.3c0,2.4,0.2,13.8,0.2,13.9l0,0.3h15.6V31.3c0-2.2-0.5-4-1.5-5.5c-0.9-1.4-2.1-2.6-3.3-3.4   c-0.4-0.2-0.7-0.4-1-0.6c0.1-0.1,0.1-0.2,0.2-0.3c0.5-0.7,0.9-1.5,1.3-2.3c0.3-0.8,0.6-1.4,0.8-2c0.3-0.9,0.6-1.7,0.9-2.6   l3.7-12.2v30.5c0,2.5,0.4,4.8,1.3,7c0.8,2.2,2.1,4.1,3.7,5.7c1.6,1.6,3.5,2.9,5.7,3.8c2.2,0.9,4.7,1.3,7.3,1.3   c3.3,0,6.4-0.8,9.1-2.3c2.7-1.5,4.9-3.7,6.5-6.4c1.6-2.7,2.4-5.9,2.4-9.3V0.3H74.4V32.7z M18.3,39.3V40h-4.6   C14.8,39.6,16.4,39.4,18.3,39.3z M18.3,28.6v0.7c-1.9-0.1-3.5-0.3-4.6-0.7H18.3z"></path>		<path class="st0" d="M122.1,27.7c-1.3-1.9-2.5-3.5-3.9-4.7c-0.9-0.8-1.7-1.5-2.7-2.3c-1.4-1.1-2.7-2.2-4.1-3.3   c-0.4-0.3-0.6-0.6-0.8-0.9c0.2-0.1,0.7-0.2,1.7-0.2h10.4v-16h-14.9c-2,0-4.1,0.4-6.3,1.1c-2.3,0.7-4.3,2.2-6,4.2   c-1.7,2.1-2.6,5-2.7,8.6c0,1.7,0.3,3.2,0.9,4.6c0.6,1.4,1.4,2.7,2.4,4c1,1.2,2.2,2.5,3.7,3.9l0.2,0.2c1.4,1.3,2.7,2.6,4.1,3.9   c1,0.9,1.5,1.7,1.5,2.4c0,0.1,0,0.1,0,0.1c0,0,0,0-0.1,0.1c-0.4,0.2-0.9,0.3-1.5,0.3H92.7v16.1h14.7c2.8,0,5.4-0.5,7.9-1.4   c2.6-1,4.8-2.5,6.4-4.5c1.7-2.1,2.6-4.8,2.6-7.9c0-0.5,0-1.1-0.1-1.7C124.1,31.9,123.4,29.7,122.1,27.7z"></path>	</g>	<path class="st1" d="M94.1,48.4V35.1h10.1c0.8,0,1.4-0.1,2.1-0.4c0.6-0.3,0.9-0.8,0.9-1.4c0-1.1-0.7-2.3-2-3.5  c-1.5-1.4-2.9-2.8-4.3-4.1c-1.4-1.4-2.6-2.6-3.6-3.8c-1-1.2-1.7-2.4-2.2-3.7c-0.5-1.3-0.8-2.6-0.8-4.1c0-3.3,0.8-5.8,2.4-7.7  c1.5-1.9,3.3-3.1,5.3-3.8s4-1,5.9-1h13.4v13.1h-9c-2,0-3.1,0.5-3.2,1.6c0.2,0.7,0.7,1.4,1.4,2.1c3.3,2.6,5.5,4.5,6.8,5.6  c1.3,1.1,2.5,2.6,3.7,4.4c1.2,1.8,1.8,3.8,2,6c0,0.4,0.1,0.9,0.1,1.5c0,2.8-0.8,5.1-2.3,7c-1.5,1.9-3.4,3.2-5.8,4.1  c-2.4,0.9-4.9,1.3-7.5,1.3H94.1z M56.1,1.7h13.6v31c0,1,0.3,1.8,0.9,2.4c0.6,0.6,1.3,0.9,2.2,1c0.9-0.1,1.7-0.4,2.2-0.9  c0.6-0.6,0.9-1.4,0.9-2.4v-31h13.4v31c0,3.2-0.7,6.1-2.2,8.6c-1.5,2.5-3.4,4.5-5.9,5.9c-2.5,1.4-5.3,2.1-8.4,2.1  c-2.5,0-4.7-0.4-6.8-1.2c-2-0.8-3.8-2-5.3-3.5c-1.5-1.5-2.6-3.2-3.4-5.2c-0.8-2-1.2-4.2-1.2-6.5V1.7z M19.7,37.8h-0.2  c-2.7,0-4.9,0.3-6.4,0.8c-1.5,0.5-3,1.4-4.4,2.7h11L19.7,37.8z M19.7,27.1h-11c1.4,1.3,2.9,2.2,4.4,2.7c1.5,0.5,3.7,0.8,6.4,0.8  h0.2L19.7,27.1z M7,17H1.4V1.4H7v4.2h12.7l0-3.9h13.5v16.8c0.7,0,1.2-0.5,1.6-1.4c0.4-1,0.8-2.2,1.2-3.8l3.7-11.5h13.6L50,13.1  c-0.6,1.9-1,3.1-1.2,3.6c-0.2,0.5-0.4,1.2-0.8,1.9c-0.3,0.7-0.7,1.4-1.1,2.1c-0.4,0.6-0.9,1.2-1.6,1.6c0.8,0.2,1.7,0.6,2.8,1.3  c1.1,0.7,2,1.6,2.9,2.9c0.8,1.3,1.3,2.9,1.3,4.7v17.3c-6.6,0-12.5,0-12.5,0s0.4-12.4-0.5-14.4c-1.3-3.2-6-2.3-6-2.3l0,16.7l-31.9,0  v-9.6c1-1,2.2-1.9,3.6-2.7c1.3-0.8,2.8-1.5,4.5-2c-1.6-0.5-3.1-1.2-4.4-2c-1.4-0.8-2.6-1.7-3.6-2.7v-9.6h18.3l0-7.1H7V17z   M126.9,48.4V1.7h13.6v16.3h6.3V1.7h13.7v46.7h-13.7V30.1h-6.3v18.3H126.9z"></path>	<polygon class="st2" points="31.6,42 24.5,42 24.5,33 31.6,33 31.6,25.8 40.6,25.8 40.6,33 47.8,33 47.8,42 40.6,42 40.6,49.1   31.6,49.1  "></polygon>	<path class="st0" d="M41.5,32.1v-7.2H30.7v7.2h-7.2v10.8h7.2V50l10.8,0v-7.1h7.2V32.1H41.5z M39.7,41.1v7.2l-7.2,0v-7.2h-7.2v-7.2  h7.2v-7.2h7.2v7.2h7.2v7.2H39.7z"></path></g></svg>