<svg xmlns="http://www.w3.org/2000/svg" width="1280" height="920" viewBox="0 0 1280 920">
  <g fill="none" stroke="#17372d" stroke-linecap="round" stroke-linejoin="round">
    <g stroke-opacity=".24" stroke-width=".9">
      <path d="M-80 118c83-48 171-66 266-52 73 11 132 41 193 78 75 45 144 62 220 33 54-20 96-61 151-81 87-31 174-8 253 34 84 45 168 62 269 31"/>
      <path d="M-63 174c94-51 180-64 259-40 64 20 107 62 168 91 81 39 159 32 230-12 61-38 101-83 181-91 90-9 150 44 230 76 91 36 187 29 285-11"/>
      <path d="M-52 238c92-42 163-40 225 5 55 40 91 89 163 103 96 19 168-30 238-88 62-51 118-77 196-52 64 20 111 69 175 92 103 37 216 17 345-49"/>
      <path d="M-74 304c97-25 168-6 213 56 42 57 76 109 147 124 96 20 168-45 232-120 61-71 115-111 196-85 61 20 101 79 159 115 94 58 219 34 395-73"/>
      <path d="M-82 374c87-10 145 20 175 90 30 69 57 126 127 151 92 32 169-30 227-118 52-79 93-143 173-138 66 4 106 69 162 120 92 82 219 76 491-78"/>
      <path d="M-78 456c82 5 128 46 139 120 11 76 34 142 101 178 83 45 167 1 228-89 55-81 91-164 173-174 76-9 120 57 172 121 89 111 217 120 544-81"/>
      <path d="M-64 536c87 31 118 82 94 153-27 78-16 135 43 178 76 54 169 29 239-51 64-73 105-160 185-181 83-21 137 43 188 115 80 112 195 146 364 75 75-32 142-81 238-156"/>
    </g>
    <g stroke-opacity=".3" stroke-width="1.25">
      <path d="M146 58c44-26 100-30 150-15 58 17 96 59 137 101 43 44 90 74 156 62 55-10 90-48 124-88 45-54 98-82 167-67 68 15 111 66 171 91 74 31 151 16 226-27"/>
      <path d="M119 652c73 45 153 33 221-31 72-68 111-176 209-201 86-21 150 39 198 112 65 99 157 147 279 102 70-26 139-82 214-141"/>
    </g>
    <g stroke-opacity=".36" stroke-width="1">
      <path d="M236 164c41-20 91-14 126 15 42 35 56 87 105 110 55 26 116 1 154-41 35-39 58-90 112-104 52-14 95 20 130 56 46 47 89 72 148 53 38-12 70-41 112-73"/>
      <path d="M254 206c36-15 77-6 104 23 32 35 50 77 95 96 57 24 112-9 149-51 32-36 55-74 99-84 49-11 83 28 115 62 41 45 82 63 133 40 32-15 61-39 96-67"/>
      <path d="M283 251c31-10 63 2 84 29 29 38 51 68 90 80 48 14 91-18 128-57 31-32 55-56 90-57 40-1 68 34 96 67 35 41 72 52 115 26 27-16 52-37 80-59"/>
      <path d="M314 294c30-4 51 16 69 43 23 35 47 55 81 56 37 1 69-23 100-56 28-30 52-47 81-39 31 8 52 38 77 68 31 38 65 43 102 17 23-16 43-35 65-52"/>
      <path d="M356 337c24 5 37 24 50 45 17 28 40 39 68 31 29-8 51-32 74-57 24-26 45-36 68-23 21 13 37 38 57 62 25 30 54 29 84 5"/>
      <path d="M405 376c22 18 44 26 67 12 22-14 38-37 59-58 18-19 36-22 55-5 18 16 30 41 49 61 22 22 47 19 73-7"/>
    </g>
    <g stroke-opacity=".34" stroke-width="1">
      <path d="M70 760c41-65 92-101 155-108 66-8 112 27 157 74 43 45 84 72 144 54 49-15 81-54 116-93 48-54 101-75 158-42 46 27 75 80 122 111 63 42 144 24 234-58"/>
      <path d="M116 786c35-48 77-75 126-78 58-3 94 30 135 71 44 44 88 58 136 31 40-22 67-58 102-95 43-45 87-52 130-18 37 29 63 76 109 98 57 27 120 6 188-55"/>
      <path d="M164 811c34-33 70-46 111-38 45 9 75 43 112 73 43 34 86 32 126-1 33-27 58-61 91-85 37-27 74-23 108 10 31 31 55 67 96 77 46 12 94-11 145-58"/>
      <path d="M226 828c41-6 73 16 105 45 38 35 78 40 116 11 32-24 54-59 85-82 33-25 66-20 96 11 28 28 53 58 91 55"/>
    </g>
    <g stroke-opacity=".42" stroke-width="1.65">
      <path d="M200 128c66-37 139-27 194 29 49 50 84 102 155 99 68-3 108-52 148-101 49-59 110-78 179-40 56 31 97 82 165 88 64 6 119-22 178-63"/>
      <path d="M112 718c59-74 128-108 205-91 62 14 102 58 147 101 52 50 112 57 169 18 47-32 78-78 122-116 56-49 119-41 169 17 39 46 79 84 142 82 58-2 113-36 176-91"/>
    </g>
    <g stroke-opacity=".22" stroke-width=".8">
      <path d="M1012-40c-38 69-39 132-3 189 39 62 108 95 131 167 27 84-38 148-42 226-3 72 42 126 119 166"/>
      <path d="M1076-35c-31 63-28 118 9 166 39 50 93 84 111 148 23 81-40 139-39 212 0 62 39 109 103 146"/>
      <path d="M-40 54c57 34 86 77 87 131 1 63-49 105-50 165-1 61 48 100 76 149 35 62 10 121-52 178"/>
    </g>
  </g>
</svg>
